<?xml version="1.0" encoding="UTF-8"?>
<svg id="Layer_1" xmlns="http://www.w3.org/2000/svg" xmlns:xlink="http://www.w3.org/1999/xlink" version="1.1" viewBox="0 0 1760 1240">
  <!-- Generator: Adobe Illustrator 30.6.0, SVG Export Plug-In . SVG Version: 2.1.4 Build 75)  -->
  <defs>
    <style>
      .st0 {
        fill: none;
      }

      .st1, .st2, .st3, .st4, .st5, .st6, .st7, .st8, .st9, .st10, .st11, .st12, .st13, .st14, .st15, .st16, .st17, .st18, .st19, .st20, .st21, .st22, .st23, .st24, .st25, .st26, .st27, .st28 {
        isolation: isolate;
      }

      .st1, .st11, .st13, .st15, .st19, .st22 {
        font-family: AvenirNext-Bold, 'Avenir Next';
        font-weight: 700;
      }

      .st1, .st12, .st13, .st22 {
        fill: #0f1a0f;
      }

      .st1, .st19 {
        font-size: 26px;
      }

      .st2 {
        fill: #2a6496;
      }

      .st2, .st7, .st8, .st9, .st11, .st28 {
        font-size: 15px;
      }

      .st3, .st7, .st8, .st9, .st20, .st29, .st30, .st25, .st26 {
        font-family: AvenirNext-DemiBold, 'Avenir Next';
        font-weight: 300;
      }

      .st3, .st12, .st17, .st21, .st23, .st24 {
        font-size: 17px;
      }

      .st3, .st19, .st20 {
        fill: #0f6b22;
      }

      .st31 {
        fill: #eaf7ea;
      }

      .st4 {
        font-size: 30px;
      }

      .st4, .st5, .st6, .st10, .st12, .st17, .st32, .st21, .st24 {
        font-family: AvenirNext-Regular, 'Avenir Next';
      }

      .st4, .st33 {
        fill: #5a8abf;
      }

      .st34 {
        stroke: #89c689;
      }

      .st34, .st35 {
        fill: #d0f0d0;
      }

      .st36 {
        fill: #75a843;
      }

      .st37, .st6 {
        fill: #9cc49c;
      }

      .st5 {
        fill: #2a402a;
      }

      .st5, .st10 {
        font-size: 19px;
      }

      .st38 {
        stroke: #6aaa50;
        stroke-width: 2.5px;
      }

      .st38, .st39, .st11, .st40, .st41 {
        fill: #fff;
      }

      .st39 {
        stroke: #e3ece6;
      }

      .st39, .st41 {
        stroke-width: 1.5px;
      }

      .st6 {
        font-size: 18px;
      }

      .st42 {
        fill: #f0faf0;
      }

      .st7 {
        letter-spacing: .11em;
      }

      .st7, .st8, .st9, .st14, .st18, .st23, .st24, .st25, .st26, .st27 {
        fill: #4a6b52;
      }

      .st8 {
        letter-spacing: .11em;
      }

      .st9 {
        letter-spacing: .09em;
      }

      .st10, .st43 {
        fill: #6aaa50;
      }

      .st40, .st41, .st44 {
        stroke: #9cc49c;
      }

      .st40, .st44 {
        stroke-width: 2px;
      }

      .st45 {
        fill: #2d6a2d;
      }

      .st13, .st27 {
        font-size: 20px;
      }

      .st46 {
        fill: #83bf4f;
      }

      .st14, .st25, .st26 {
        font-size: 13px;
      }

      .st15 {
        fill: #4b8c46;
        font-size: 23px;
      }

      .st17 {
        fill: #c4962a;
      }

      .st47, .st48, .st28 {
        font-family: MyriadPro-Regular, 'Myriad Pro';
      }

      .st49 {
        fill: #fde8e8;
      }

      .st18 {
        font-size: 21px;
      }

      .st18, .st27 {
        font-family: AvenirNext-Italic, 'Avenir Next';
        font-style: italic;
      }

      .st19, .st48, .st29, .st26 {
        letter-spacing: .08em;
      }

      .st20 {
        font-size: 14px;
        letter-spacing: .07em;
      }

      .st21, .st28 {
        fill: #b85c38;
      }

      .st22 {
        font-size: 24px;
      }

      .st30, .st25 {
        letter-spacing: .08em;
      }

      .st50 {
        fill: #eaf2fb;
      }

      .st44 {
        fill: url(#linear-gradient);
      }

      .st51 {
        fill: #e7f0fa;
      }
    </style>
    <linearGradient id="linear-gradient" x1="149.05" y1="730.01" x2="770.83" y2="1088.99" gradientUnits="userSpaceOnUse">
      <stop offset=".02" stop-color="#dff0da" stop-opacity=".7"/>
      <stop offset=".45" stop-color="#ddf0d7" stop-opacity=".71"/>
      <stop offset=".62" stop-color="#d8f1d0" stop-opacity=".73"/>
      <stop offset=".74" stop-color="#d0f3c4" stop-opacity=".77"/>
      <stop offset=".84" stop-color="#c3f6b2" stop-opacity=".83"/>
      <stop offset=".93" stop-color="#b4fa9a" stop-opacity=".91"/>
      <stop offset="1" stop-color="#a1ff7f"/>
    </linearGradient>
  </defs>
  <g>
    <rect class="st42" width="1760" height="1240"/>
    <rect class="st42" width="1760" height="1240"/>
  </g>
  <text class="st19" transform="translate(570.69 70)"><tspan x="0" y="0">BRAINSTORM BOARD · CARD TREATMENTS</tspan></text>
  <text class="st7" transform="translate(60 116)"><tspan x="0" y="0">TRACKER · POD CARD</tspan></text>
  <rect class="st41" x="60" y="138" width="1640" height="250" rx="8" ry="8"/>
  <rect class="st41" x="60" y="138" width="1640" height="52" rx="8" ry="8"/>
  <rect class="st31" x="60" y="182" width="1640" height="8"/>
  <text class="st9" transform="translate(78 170)"><tspan x="0" y="0">POD</tspan></text>
  <text class="st13" transform="translate(136 170)"><tspan x="0" y="0">3</tspan></text>
  <text class="st6" transform="translate(164 170)"><tspan x="0" y="0">|</tspan></text>
  <text class="st13" transform="translate(186 170)"><tspan x="0" y="0">Buttercrunch</tspan></text>
  <text class="st6" transform="translate(371 170)"><tspan x="0" y="0">|</tspan></text>
  <text class="st24" transform="translate(393 170)"><tspan x="0" y="0">2026-05-15</tspan></text>
  <text class="st6" transform="translate(553 170)"><tspan x="0" y="0">|</tspan></text>
  <rect class="st35" x="575" y="149" width="130" height="30" rx="6" ry="6"/>
  <g class="st16">
    <g>
      <path class="st46" d="M611.97,165c-2,0-2.54-1.66-2.54-1.66,0,0,.53-2.06,2.54-2.06,1.38,0,3.62,1.86,3.62,1.86,0,0-2.24,1.86-3.62,1.86Z"/>
      <path class="st46" d="M604.34,157.07c1.56,1.59.64,3.4.64,3.4,0,0-1.94,1.1-3.5-.49-1.08-1.09-1.39-4.32-1.39-4.32,0,0,3.18.32,4.26,1.42Z"/>
      <path class="st36" d="M615.58,163.14c-1.24-.26-2.52-.4-3.77-.26-1.24.13-2.46.57-3.31,1.42-.42.42-.74.93-.88,1.48-.04.14-.06.27-.07.41-.01.14-.01.25,0,.43l.05.95.19,3.82h-1.25l.19-3.82.05-.95c0-.15.01-.35.05-.53.03-.18.08-.35.13-.52.23-.67.66-1.24,1.17-1.68.51-.45,1.12-.76,1.74-.97.63-.21,1.28-.3,1.92-.33,1.3-.05,2.57.19,3.79.54Z"/>
      <path class="st36" d="M600.08,155.65c1.31.79,2.49,1.8,3.55,2.92,1.06,1.12,2,2.35,2.79,3.7.39.68.74,1.38.97,2.16.05.2.1.4.11.63l.03.59.05,1.15.21,4.59h-1.25l.21-4.6.05-1.15v-.29c.02-.09.02-.2.02-.27,0-.16-.03-.33-.06-.51-.15-.7-.46-1.4-.79-2.07-.68-1.34-1.54-2.61-2.52-3.78-.98-1.16-2.09-2.23-3.36-3.1Z"/>
    </g>
    <path class="st45" d="M626.82,159.5c-.25-.34-.56-.62-.94-.82-.38-.21-.85-.31-1.39-.31-.28,0-.56.04-.85.13-.29.08-.55.22-.78.39-.23.18-.42.4-.57.66s-.22.58-.22.94.07.66.21.9c.14.24.32.43.55.6.23.17.49.3.78.41.29.11.6.21.92.32.39.13.79.27,1.19.42s.76.34,1.08.58.58.54.78.91c.2.37.3.83.3,1.4s-.11,1.05-.32,1.46c-.22.41-.5.75-.84,1.02s-.74.46-1.18.59c-.44.13-.89.19-1.34.19-.34,0-.68-.04-1.02-.1-.34-.07-.67-.17-.98-.31-.31-.14-.6-.31-.86-.53-.27-.21-.5-.46-.7-.74l.99-.74c.25.41.59.74,1.03,1.02.44.27.96.41,1.56.41.29,0,.58-.04.88-.14.3-.09.57-.23.81-.42.24-.19.44-.42.59-.69.15-.27.23-.59.23-.95,0-.39-.08-.72-.23-.98-.15-.26-.36-.48-.62-.66-.26-.18-.55-.32-.88-.44s-.68-.24-1.04-.35c-.37-.12-.74-.25-1.1-.4s-.69-.34-.98-.58c-.29-.24-.52-.54-.7-.89-.18-.35-.26-.78-.26-1.3,0-.54.11-1.01.33-1.41.22-.39.5-.72.86-.98s.74-.44,1.17-.56c.43-.12.85-.18,1.26-.18.77,0,1.42.14,1.97.41s.95.59,1.23.97l-.91.74Z"/>
    <path class="st45" d="M631.38,172.84h-1.09v-11.33h1.09v1.3h.05c.31-.49.72-.86,1.24-1.11.52-.25,1.04-.38,1.58-.38.59,0,1.12.1,1.59.3.47.2.88.48,1.22.83.34.35.6.77.78,1.25.19.48.28,1,.28,1.55s-.09,1.07-.28,1.55c-.19.48-.45.9-.78,1.25-.34.35-.74.63-1.22.83-.47.2-1.01.3-1.59.3-.53,0-1.06-.13-1.58-.38-.52-.25-.93-.61-1.24-1.08h-.05v5.1ZM636.97,165.26c0-.42-.06-.81-.19-1.18s-.31-.69-.55-.96c-.24-.27-.54-.49-.89-.65s-.75-.24-1.2-.24c-.42,0-.8.08-1.15.23-.35.16-.66.37-.91.64-.26.27-.46.59-.6.96-.14.37-.22.76-.22,1.19s.07.82.22,1.19c.14.37.34.69.6.95.26.27.56.48.91.63s.74.23,1.15.23c.45,0,.85-.08,1.2-.23s.65-.37.89-.64c.24-.27.42-.59.55-.96.13-.37.19-.76.19-1.18Z"/>
    <path class="st45" d="M640.44,162.38c-.01-.32-.03-.61-.05-.86h1.04c.02.2.04.43.05.67.01.25.02.45.02.61h.03c.21-.44.53-.79.96-1.06.43-.27.91-.41,1.44-.41.14,0,.26,0,.38.02.11.01.23.03.34.06l-.14,1.04c-.06-.02-.17-.04-.32-.06s-.3-.03-.45-.03c-.29,0-.57.05-.83.16-.27.11-.5.27-.7.5-.2.23-.36.52-.48.88-.12.36-.18.79-.18,1.29v3.83h-1.09v-5.84c0-.2,0-.46-.02-.78Z"/>
    <path class="st45" d="M653.37,165.26c0,.57-.1,1.09-.3,1.57-.2.48-.47.9-.82,1.25-.35.35-.77.63-1.26.82-.49.2-1.03.3-1.62.3s-1.11-.1-1.6-.3c-.49-.2-.91-.47-1.26-.82-.35-.35-.63-.77-.82-1.25-.2-.48-.3-1-.3-1.57s.1-1.09.3-1.57c.2-.48.47-.9.82-1.25.35-.35.77-.63,1.26-.82s1.02-.3,1.6-.3,1.13.1,1.62.3c.49.2.91.47,1.26.82.35.35.63.77.82,1.25.2.48.3,1,.3,1.57ZM652.22,165.26c0-.42-.07-.81-.2-1.18s-.32-.69-.57-.96c-.25-.27-.54-.49-.9-.65s-.75-.24-1.18-.24-.83.08-1.18.24c-.35.16-.64.38-.89.65-.25.27-.43.59-.57.96-.13.37-.2.76-.2,1.18s.07.81.2,1.18c.13.37.32.69.57.96.25.27.54.49.89.64.35.15.74.23,1.18.23s.83-.08,1.18-.23.65-.37.9-.64c.25-.27.43-.59.57-.96.13-.37.2-.76.2-1.18Z"/>
    <path class="st45" d="M661.14,169c-.02-.2-.04-.43-.05-.67-.01-.25-.02-.45-.02-.61h-.03c-.21.44-.56.79-1.04,1.06-.48.27-.99.41-1.52.41-.95,0-1.66-.28-2.14-.85s-.71-1.31-.71-2.24v-4.59h1.09v4.14c0,.39.03.75.1,1.07.06.32.17.59.33.82.15.23.36.41.62.54.26.13.59.19.98.19.29,0,.57-.06.84-.18.27-.12.51-.3.73-.54.21-.24.38-.54.51-.91s.19-.8.19-1.3v-3.84h1.09v5.84c0,.2,0,.46.02.78.01.32.03.61.05.86h-1.04Z"/>
    <path class="st45" d="M668.38,162.42h-2.11v4.37c0,.28.03.51.08.69.05.18.13.32.23.42.1.1.22.17.36.21s.29.06.45.06c.15,0,.31-.02.47-.06.17-.04.32-.1.47-.18l.05.94c-.19.07-.39.13-.6.17s-.43.06-.68.06c-.2,0-.42-.03-.64-.08-.22-.05-.43-.15-.62-.3s-.35-.35-.47-.61c-.12-.26-.18-.59-.18-1.01v-4.67h-1.55v-.91h1.55v-2.11h1.09v2.11h2.11v.91Z"/>
    <path class="st45" d="M676.89,165.03v.24c0,.08,0,.18-.02.27h-6.21c.01.37.08.73.22,1.06.14.33.33.62.58.86.25.25.53.44.86.58.33.14.69.22,1.07.22.56,0,1.05-.13,1.46-.39s.72-.56.94-.9l.82.64c-.45.57-.94.97-1.48,1.22s-1.12.37-1.74.37c-.55,0-1.07-.1-1.54-.3-.48-.2-.88-.47-1.22-.82-.34-.35-.61-.77-.81-1.25-.2-.48-.3-1-.3-1.57s.1-1.09.29-1.57c.19-.48.46-.9.8-1.25.34-.35.74-.63,1.2-.82.46-.2.95-.3,1.49-.3.59,0,1.1.1,1.55.3.45.2.82.46,1.12.8.3.34.52.73.68,1.18s.23.93.23,1.44ZM675.78,164.68c-.03-.7-.26-1.29-.68-1.75-.42-.46-1.02-.7-1.8-.7-.36,0-.7.07-1.01.2-.31.13-.58.32-.82.54-.23.23-.42.49-.56.78-.14.29-.22.6-.24.92h5.1Z"/>
  </g>
  <rect class="st50" x="1550" y="149" width="86" height="30" rx="5" ry="5"/>
  <text class="st2" transform="translate(1573.8152 169)"><tspan class="st47" x="0" y="0">✎</tspan><tspan class="st32" x="7.5" y="0" xml:space="preserve"> Edit</tspan></text>
  <rect class="st49" x="1644" y="149" width="34" height="30" rx="5" ry="5"/>
  <text class="st28" transform="translate(1657.16 169)"><tspan x="0" y="0">✕</tspan></text>
  <rect class="st37" x="470" y="190" width="1" height="66"/>
  <rect class="st37" x="60" y="256" width="410" height="1"/>
  <text class="st14" transform="translate(76 214)"><tspan class="st29" x="0" y="0">SEED </tspan><tspan class="st48" x="41.44" y="0">→</tspan><tspan class="st30" x="48.93" y="0" xml:space="preserve"> SPROUT</tspan></text>
  <text class="st12" transform="translate(76 236)"><tspan x="0" y="0">7 days</tspan></text>
  <rect class="st37" x="880" y="190" width="1" height="66"/>
  <rect class="st37" x="470" y="256" width="410" height="1"/>
  <text class="st14" transform="translate(486 214)"><tspan class="st29" x="0" y="0">SPROUT </tspan><tspan class="st48" x="61.44" y="0">→</tspan><tspan class="st30" x="68.93" y="0" xml:space="preserve"> HARVEST</tspan></text>
  <text class="st12" transform="translate(486 236)"><tspan x="0" y="0">28 days</tspan></text>
  <rect class="st37" x="1290" y="190" width="1" height="66"/>
  <rect class="st37" x="880" y="256" width="410" height="1"/>
  <text class="st25" transform="translate(896 214)"><tspan x="0" y="0">GOOD FOR</tspan></text>
  <text class="st12" transform="translate(896 236)"><tspan x="0" y="0">21 days</tspan></text>
  <rect class="st37" x="1290" y="256" width="410" height="1"/>
  <text class="st25" transform="translate(1306 214)"><tspan x="0" y="0">HEALTH</tspan></text>
  <text class="st3" transform="translate(1306 236)"><tspan x="0" y="0">Healthy</tspan></text>
  <rect class="st37" x="470" y="256" width="1" height="66"/>
  <rect class="st37" x="60" y="322" width="410" height="1"/>
  <text class="st25" transform="translate(76 280)"><tspan x="0" y="0">EXPECTED SPROUT</tspan></text>
  <text class="st24" transform="translate(76 302)"><tspan x="0" y="0">May 22</tspan></text>
  <rect class="st37" x="880" y="256" width="1" height="66"/>
  <rect class="st37" x="470" y="322" width="410" height="1"/>
  <text class="st25" transform="translate(486 280)"><tspan x="0" y="0">1ST HARVEST</tspan></text>
  <text class="st3" transform="translate(486 302)"><tspan x="0" y="0">Jun 19</tspan></text>
  <rect class="st37" x="1290" y="256" width="1" height="66"/>
  <rect class="st37" x="880" y="322" width="410" height="1"/>
  <text class="st25" transform="translate(896 280)"><tspan x="0" y="0">EST. DIE-OFF</tspan></text>
  <text class="st21" transform="translate(896 302)"><tspan x="0" y="0">Jul 10</tspan></text>
  <rect class="st37" x="1290" y="322" width="410" height="1"/>
  <text class="st25" transform="translate(1306 280)"><tspan x="0" y="0">REPLANT BY</tspan></text>
  <text class="st17" transform="translate(1306 302)"><tspan x="0" y="0">Jun 12</tspan></text>
  <rect class="st37" x="470" y="322" width="1" height="66"/>
  <text class="st25" transform="translate(76 346)"><tspan x="0" y="0">LIGHT · PETS · PH</tspan></text>
  <circle class="st43" cx="80" cy="364" r="5"/>
  <text class="st24" transform="translate(90 368)"><tspan x="0" y="0">medium · Safe · pH 5.5–6.5</tspan></text>
  <rect class="st37" x="880" y="322" width="1" height="66"/>
  <text class="st25" transform="translate(486 346)"><tspan x="0" y="0">QTY · THIN TO</tspan></text>
  <text class="st23" transform="translate(486 368)"><tspan class="st32" x="0" y="0">3 · </tspan><tspan class="st47" x="22.78" y="0">→</tspan><tspan class="st32" x="31.28" y="0">1</tspan></text>
  <rect class="st37" x="1290" y="322" width="1" height="66"/>
  <text class="st26" transform="translate(896 346)"><tspan x="0" y="0">NOTES</tspan></text>
  <text class="st24" transform="translate(896 368)"><tspan x="0" y="0">Looking strong — thin next week</tspan></text>
  <text class="st7" transform="translate(60 458)"><tspan x="0" y="0">TASK CARD · FOUR TREATMENTS OF “CHECK RESERVOIR WATER LEVEL”</tspan></text>
  <text class="st7" transform="translate(60 492)"><tspan x="0" y="0">A · CURRENT</tspan></text>
  <text class="st8" transform="translate(902 492)"><tspan x="0" y="0">B · ICON TILE + DOTS</tspan></text>
  <rect class="st41" x="60" y="516" width="798" height="248" rx="14" ry="14"/>
  <path class="st43" d="M63,516h0c1.66,0,3,6.27,3,14v220c0,7.73-1.34,14-3,14h0c-1.66,0-3-6.27-3-14v-220c0-7.73,1.34-14,3-14Z"/>
  <rect class="st40" x="86" y="544" width="28" height="28" rx="6" ry="6"/>
  <text class="st22" transform="translate(132 572)"><tspan x="0" y="0">Check Reservoir Water Level</tspan></text>
  <text class="st27" transform="translate(132 602)"><tspan x="0" y="0">Plants drink more water than nutrients — top up between feeding</tspan></text>
  <text class="st27" transform="translate(132 632)"><tspan x="0" y="0">days</tspan></text>
  <text class="st10" transform="translate(132 672)"><tspan x="0" y="0">—</tspan></text>
  <text class="st5" transform="translate(154 672)"><tspan x="0" y="0">Top up with plain water if below the minimum line</tspan></text>
  <text class="st10" transform="translate(132 700)"><tspan x="0" y="0">—</tspan></text>
  <text class="st5" transform="translate(154 700)"><tspan x="0" y="0">Listen for the pump — should be running quietly and consistently</tspan></text>
  <text class="st10" transform="translate(132 728)"><tspan x="0" y="0">—</tspan></text>
  <text class="st5" transform="translate(154 728)"><tspan x="0" y="0">Confirm water is trickling down through all pods from the top</tspan></text>
  <rect class="st39" x="902" y="516" width="798" height="278" rx="18" ry="18"/>
  <rect class="st51" x="928" y="542" width="58" height="58" rx="14" ry="14"/>
  <text class="st4" transform="translate(949.32 583)"><tspan x="0" y="0"></tspan></text>
  <text class="st22" transform="translate(1004 572)"><tspan x="0" y="0">Check Reservoir Water Level</tspan></text>
  <text class="st27" transform="translate(1004 602)"><tspan x="0" y="0">Plants drink more water than nutrients — top up between</tspan></text>
  <text class="st27" transform="translate(1004 632)"><tspan x="0" y="0">feeding days</tspan></text>
  <circle class="st33" cx="1009" cy="668" r="4"/>
  <text class="st5" transform="translate(1028 674)"><tspan x="0" y="0">Top up with plain water if below the minimum line</tspan></text>
  <circle class="st33" cx="1009" cy="696" r="4"/>
  <text class="st5" transform="translate(1028 702)"><tspan x="0" y="0">Listen for the pump — should be running quietly and</tspan></text>
  <text class="st5" transform="translate(1028 730)"><tspan x="0" y="0">consistently</tspan></text>
  <circle class="st33" cx="1009" cy="752" r="4"/>
  <text class="st5" transform="translate(1028 758)"><tspan x="0" y="0">Confirm water is trickling down through all pods from the top</tspan></text>
  <text class="st7" transform="translate(60 850)"><tspan x="0" y="0">C · HEADER BAND + PILL</tspan></text>
  <text class="st7" transform="translate(902 850)"><tspan x="0" y="0">D · MINIMAL, NUMBERED</tspan></text>
  <rect class="st41" x="60" y="874" width="798" height="280" rx="14" ry="14"/>
  <path class="st44" d="M74,874h770c7.73,0,14,6.27,14,14v50H60v-50c0-7.73,6.27-14,14-14Z"/>
  <rect class="st40" x="84" y="893" width="26" height="26" rx="6" ry="6"/>
  <text class="st15" transform="translate(124 914)"><tspan x="0" y="0">Check Reservoir Water Level</tspan></text>
  <path class="st34" d="M681,891h138c8.28,0,15,6.72,15,15h0c0,8.28-6.72,15-15,15h-138c-8.28,0-15-6.72-15-15h0c0-8.28,6.72-15,15-15Z"/>
  <text class="st20" transform="translate(688.44 911)"><tspan x="0" y="0">EVERY 2–3 DAYS</tspan></text>
  <text class="st27" transform="translate(84 984)"><tspan x="0" y="0">Plants drink more water than nutrients — top up between feeding days</tspan></text>
  <path class="st43" d="M904,874h0c1.1,0,2,.9,2,2v276c0,1.1-.9,2-2,2h0c-1.1,0-2-.9-2-2v-276c0-1.1.9-2,2-2Z"/>
  <rect class="st0" x="906" y="874" width="794" height="280"/>
  <rect class="st38" x="922" y="894" width="34" height="34" rx="8" ry="8"/>
  <text class="st1" transform="translate(974 924)"><tspan x="0" y="0">Check Reservoir Water Level</tspan></text>
  <text class="st18" transform="translate(974 956)"><tspan x="0" y="0">Plants drink more water than nutrients — top up between</tspan></text>
  <text class="st18" transform="translate(974 987)"><tspan x="0" y="0">feeding days</tspan></text>
  <circle class="st43" cx="100" cy="1025" r="13"/>
  <text class="st11" transform="translate(95.155 1030)"><tspan x="0" y="0">1</tspan></text>
  <text class="st5" transform="translate(125 1032)"><tspan x="0" y="0">Top up with plain water if below the minimum line</tspan></text>
  <circle class="st43" cx="100" cy="1065" r="13"/>
  <text class="st11" transform="translate(95.155 1070)"><tspan x="0" y="0">2</tspan></text>
  <text class="st5" transform="translate(125 1072)"><tspan x="0" y="0">Check Gardyn App for Water Level</tspan></text>
  <circle class="st43" cx="100" cy="1105" r="13"/>
  <text class="st11" transform="translate(95.155 1110)"><tspan x="0" y="0">3</tspan></text>
  <text class="st5" transform="translate(125 1112)"><tspan x="0" y="0">Plant food or Hydroboost if needed</tspan></text>
</svg>